<svg id="visual" viewBox="0 0 900 600" width="900" height="600" xmlns="http://www.w3.org/2000/svg" xmlns:xlink="http://www.w3.org/1999/xlink" version="1.1"><rect x="0" y="0" width="900" height="600" fill="#ffffff"></rect><path d="M0 394L13.7 394.7C27.3 395.3 54.7 396.7 82 405.5C109.3 414.3 136.7 430.7 163.8 434.7C191 438.7 218 430.3 245.2 428C272.3 425.7 299.7 429.3 327 422.8C354.3 416.3 381.7 399.7 409 393.3C436.3 387 463.7 391 491 394.7C518.3 398.3 545.7 401.7 573 400.2C600.3 398.7 627.7 392.3 654.8 393.8C682 395.3 709 404.7 736.2 415.2C763.3 425.7 790.7 437.3 818 438.7C845.3 440 872.7 431 886.3 426.5L900 422L900 601L886.3 601C872.7 601 845.3 601 818 601C790.7 601 763.3 601 736.2 601C709 601 682 601 654.8 601C627.7 601 600.3 601 573 601C545.7 601 518.3 601 491 601C463.7 601 436.3 601 409 601C381.7 601 354.3 601 327 601C299.7 601 272.3 601 245.2 601C218 601 191 601 163.8 601C136.7 601 109.3 601 82 601C54.7 601 27.3 601 13.7 601L0 601Z" fill="#000000" stroke-linecap="round" stroke-linejoin="miter"></path></svg>